# xmcd CD database file
#
# Track frame offsets:
#	150
#	26735
#	42165
#	92375
#	130502
#	160962
#	203150
#	226950
#	254110
#	287480
#
# Disc length: 4225 seconds
#
# Revision: 0
# Processed by: cddbd v1.5.1PL2 Copyright (c) Steve Scherf et al.
# Submitted via: CDex 1.51
#
DISCID=80107f0a
DTITLE=Various Artist - - summer *everblue* days01
DYEAR=2005
DGENRE=Dorama
TTITLE0=大変なんです
TTITLE1=まっかせなさい！
TTITLE2=秘蔵これくしょん？
TTITLE3=女にしてください！
TTITLE4=しなの屋です！？
TTITLE5=アタシだって……
TTITLE6=親友
TTITLE7=そんな二人に……
TTITLE8=新たなる境地
TTITLE9=Cherrs!
EXTD=YEAR: 2005
EXTT0=
EXTT1=
EXTT2=
EXTT3=
EXTT4=
EXTT5=
EXTT6=
EXTT7=
EXTT8=
EXTT9=
PLAYORDER=
